<?xml version="1.0" standalone="no"?>
<!DOCTYPE svg PUBLIC "-//W3C//DTD SVG 20010904//EN"
 "http://www.w3.org/TR/2001/REC-SVG-20010904/DTD/svg10.dtd">
<svg version="1.0" xmlns="http://www.w3.org/2000/svg"
 width="1607.000000pt" height="1073.000000pt" viewBox="0 0 1607.000000 1073.000000"
 preserveAspectRatio="xMidYMid meet">

<g transform="translate(0.000000,1073.000000) scale(0.100000,-0.100000)"
fill="#000000" stroke="none">
<path d="M4850 10668 c0 -35 -5 -198 -10 -363 -9 -270 -18 -615 -50 -1785 -5
-201 -15 -565 -20 -810 -20 -813 -27 -1027 -35 -1040 -6 -10 -41 -11 -164 -5
-86 4 -169 8 -186 9 l-30 1 -7 -168 c-6 -164 -6 -170 17 -215 48 -97 68 -161
57 -190 -6 -15 -13 -155 -16 -312 -16 -805 -16 -802 -69 -767 -19 13 -26 13
-42 1 -10 -7 -28 -11 -41 -8 -12 3 -25 1 -28 -5 -4 -6 -16 -11 -27 -11 -11 0
-30 -7 -44 -16 -22 -14 -24 -14 -35 5 -9 17 -15 19 -30 11 -16 -8 -22 -6 -32
10 -21 33 -28 23 -28 -39 0 -41 -5 -65 -16 -75 -19 -19 -51 -21 -57 -3 -2 6
-2 168 1 360 3 248 1 347 -7 348 -6 1 -17 2 -23 4 -7 1 -22 -4 -34 -11 -14 -8
-34 -9 -65 -3 -65 12 -85 11 -109 -9 -20 -16 -20 -19 -5 -47 10 -20 13 -42 9
-67 -5 -36 -4 -38 20 -38 13 0 28 5 31 11 11 17 37 -28 33 -59 -3 -24 -8 -28
-48 -32 -40 -4 -45 -8 -45 -29 0 -30 40 -44 103 -35 38 6 47 3 72 -21 31 -30
31 -41 -4 -56 -19 -9 -19 -9 4 -5 24 5 26 3 22 -29 -3 -29 -8 -34 -26 -31 -14
2 -22 11 -24 28 -4 30 -24 38 -94 38 -38 0 -50 -4 -58 -21 -16 -29 4 -49 47
-49 40 0 50 -18 36 -63 -5 -18 -6 -43 -3 -57 11 -41 2 -50 -50 -50 -55 0 -61
-8 -54 -70 4 -31 2 -41 -7 -38 -7 2 -15 10 -17 18 -3 7 0 10 7 6 6 -4 11 -2
11 3 0 6 -4 11 -8 11 -4 0 -8 8 -9 18 -1 22 -13 92 -19 114 -3 10 3 31 13 48
15 26 16 33 4 52 -14 22 -8 192 9 288 5 26 5 49 -1 55 -15 15 -11 55 7 55 13
0 12 5 -5 34 -19 30 -21 44 -16 120 4 47 13 98 21 114 7 15 14 23 14 18 0 -6
6 -2 14 9 12 17 13 17 20 -8 6 -26 18 -32 59 -28 11 2 17 -5 17 -19 0 -18 -4
-20 -34 -15 -29 6 -35 4 -41 -14 -8 -28 -1 -38 43 -56 27 -12 43 -13 65 -5 38
13 37 13 31 -4 -3 -8 0 -17 6 -21 17 -10 26 3 14 23 -5 10 -7 60 -4 118 3 56
4 108 2 117 -2 10 -24 19 -69 27 -59 10 -66 9 -78 -7 -20 -26 3 -57 44 -61 20
-2 31 -9 31 -19 0 -12 -10 -14 -60 -8 -47 5 -60 4 -60 -7 0 -11 -2 -10 -9 1
-5 8 -8 44 -6 81 2 52 7 73 23 90 12 13 18 29 14 42 -5 20 -2 20 54 13 32 -4
70 -9 84 -10 14 -1 33 -3 42 -3 13 -2 16 -9 11 -35 -8 -49 15 -63 50 -31 22
20 25 29 17 48 -5 13 -6 27 -2 31 4 3 10 44 13 91 4 53 12 91 22 102 16 19 12
73 -8 107 -7 11 -27 60 -46 108 l-33 88 -36 -3 -35 -3 -1 68 c0 48 -5 72 -15
78 -20 13 -76 22 -94 15 -26 -10 -16 -25 20 -32 46 -8 55 -27 47 -94 -7 -51
-9 -55 -35 -58 -35 -4 -72 19 -97 60 -18 31 -19 31 -99 30 -45 0 -86 -1 -91
-1 -6 -1 -18 -17 -27 -36 -19 -40 -43 -52 -59 -30 -13 18 -7 153 8 173 6 6 18
12 28 12 26 0 38 20 40 70 5 91 3 99 -32 108 -33 8 -33 9 -36 77 -4 95 2 114
43 131 29 12 35 20 36 47 1 17 3 48 4 67 5 51 -3 70 -30 70 -34 0 -38 33 -8
60 21 18 24 27 19 55 -6 31 -4 33 36 49 27 12 65 16 109 15 44 -1 74 2 84 11
13 11 19 10 36 -8 11 -12 30 -22 43 -22 33 0 47 -22 45 -72 -2 -74 -5 -78 -55
-78 -32 0 -44 -4 -44 -15 0 -15 13 -19 87 -29 34 -5 44 -3 51 11 9 17 22 111
25 183 2 28 6 36 25 38 27 4 53 50 45 80 -7 27 -12 27 -29 5 -12 -17 -15 -15
-41 16 -24 28 -32 32 -49 23 -24 -13 -107 5 -144 31 -20 14 -23 21 -14 35 15
23 62 27 84 7 12 -11 26 -14 40 -10 13 4 31 0 46 -10 19 -12 29 -13 38 -6 9 7
22 8 37 3 13 -5 34 -5 50 1 24 10 32 6 85 -39 32 -27 68 -58 79 -70 68 -69
220 -204 230 -204 7 0 23 8 35 18 l22 18 -57 59 c-31 33 -61 70 -66 83 -5 12
-14 22 -22 22 -7 0 -21 13 -30 29 -10 17 -26 33 -37 36 -10 3 -22 15 -25 26
-4 10 -20 26 -36 34 -16 9 -29 19 -29 24 0 19 -75 81 -99 81 -26 0 -91 36 -91
51 0 5 -7 9 -16 9 -8 0 -43 19 -77 42 -91 63 -106 69 -169 73 -31 1 -62 7 -70
11 -7 5 -26 7 -42 5 -16 -1 -32 3 -37 10 -6 11 -12 11 -32 0 -14 -7 -34 -10
-45 -7 -12 4 -47 8 -78 10 -48 3 -61 8 -79 30 -26 33 -33 33 -37 -1 -2 -22 -8
-28 -28 -28 -20 0 -24 4 -22 23 2 16 -2 22 -17 22 -13 0 -21 -8 -23 -22 -3
-22 -7 -23 -92 -23 -70 0 -94 4 -112 18 -20 16 -24 16 -31 2 -8 -14 -21 -14
-99 -5 -49 5 -105 10 -124 10 -41 0 -53 6 -69 39 l-13 23 -22 -36 c-21 -35
-22 -35 -44 -20 -21 14 -25 14 -35 1 -15 -18 -71 -29 -84 -16 -6 6 -24 12 -42
14 -17 2 -45 13 -60 24 l-29 21 -26 -21 c-24 -19 -27 -19 -42 -5 -19 20 -34
20 -62 1 -16 -12 -34 -14 -72 -9 -58 8 -75 19 -84 55 -5 24 -2 27 25 33 49 9
113 7 149 -6 28 -9 35 -8 45 5 13 18 42 22 64 8 10 -7 11 -13 2 -30 -10 -17
-9 -21 4 -21 9 0 15 9 15 21 0 21 3 22 114 17 90 -4 117 -2 128 9 12 11 19 11
39 1 33 -17 253 -15 291 2 23 11 30 10 52 -8 21 -16 33 -18 60 -12 19 4 63 6
97 4 45 -2 74 2 97 14 28 14 35 15 54 3 33 -20 197 -24 226 -4 13 8 39 16 57
18 29 2 35 -1 42 -22 l8 -24 27 20 c31 25 37 26 52 6 7 -9 43 -17 104 -23 52
-5 99 -15 105 -21 6 -6 19 -11 29 -11 10 0 18 -7 18 -16 0 -14 1 -14 16 0 8 9
21 16 27 16 8 0 12 22 12 65 1 60 -6 78 -19 56 -6 -9 -38 -6 -96 9 -19 5 -48
12 -63 15 -15 3 -35 18 -45 33 -9 15 -24 28 -32 30 -30 6 -120 46 -120 53 0 4
-9 10 -19 14 -25 8 -35 38 -22 63 12 22 -3 42 -31 42 -13 0 -20 -10 -25 -31
-4 -21 -10 -28 -20 -25 -8 4 -17 6 -19 6 -2 0 -4 9 -4 19 0 39 -23 34 -69 -15
-24 -27 -42 -41 -38 -32 5 15 -3 17 -60 20 l-66 3 -11 39 c-10 34 -13 37 -24
23 -7 -8 -12 -21 -11 -29 3 -28 -2 -38 -21 -38 -11 0 -20 5 -20 10 0 15 -33
12 -56 -5 -18 -12 -32 -12 -85 -3 -37 7 -68 18 -73 27 -32 53 3 90 71 75 21
-4 51 -7 66 -5 16 1 35 -3 43 -10 13 -11 16 -7 13 17 -1 10 24 24 43 24 9 0
23 -7 32 -15 11 -11 26 -14 54 -9 25 4 42 2 46 -5 4 -6 16 -11 27 -11 11 0 17
5 14 10 -4 6 8 10 29 10 19 0 36 -6 38 -12 3 -9 9 -8 22 5 19 19 71 23 81 7 4
-6 10 -8 15 -5 5 3 32 -4 62 -14 29 -11 72 -20 96 -19 23 0 48 -4 55 -10 38
-32 79 26 49 69 -10 15 -13 34 -8 65 7 51 0 57 -16 14 -10 -30 -12 -31 -57
-24 -25 3 -50 10 -56 15 -5 5 -23 9 -40 9 -53 0 -64 23 -66 132 -2 103 2 118
32 118 10 0 19 7 19 15 0 8 9 15 20 15 11 0 20 6 20 13 -1 14 -30 55 -30 41 0
-19 -20 22 -20 42 0 11 -6 29 -14 39 -14 19 -15 19 -34 1 -20 -17 -21 -17 -46
23 -15 23 -26 55 -26 75 0 18 -7 39 -16 47 -11 9 -14 22 -10 44 5 24 1 36 -14
50 -11 10 -20 31 -20 47 0 17 -9 41 -20 55 -23 30 -26 59 -6 66 23 9 28 77 6
104 -24 31 -44 89 -36 108 3 9 1 27 -5 42 -7 19 -7 35 1 54 10 22 8 32 -6 54
-14 22 -16 41 -10 133 4 59 14 132 22 163 l16 57 -44 46 c-76 78 -191 98 -257
44 -16 -13 -36 -28 -46 -33 -16 -10 -16 -14 -1 -72 22 -84 22 -319 0 -371 -19
-46 -62 -92 -86 -92 -25 0 -40 42 -32 89 5 31 3 39 -12 45 -27 10 -40 -9 -26
-39 8 -17 8 -33 2 -51 -6 -14 -10 -48 -10 -76 0 -35 -6 -58 -17 -71 -14 -15
-17 -34 -16 -94 3 -73 2 -74 -27 -91 -24 -13 -30 -24 -30 -50 0 -26 -6 -36
-30 -50 -20 -11 -30 -25 -30 -41 0 -14 -14 -36 -35 -55 -19 -18 -35 -42 -35
-54 0 -25 -63 -72 -98 -72 -12 0 -25 -7 -28 -15 -4 -8 -17 -15 -30 -15 -21 0
-24 -5 -24 -39 0 -22 -4 -43 -10 -46 -19 -11 11 -42 36 -37 25 5 28 -1 14 -33
l-9 -20 0 20 c-2 45 -28 -33 -35 -104 -11 -114 -17 -121 -93 -121 -55 0 -66 3
-85 25 -27 32 -33 31 -75 -5 -21 -19 -45 -30 -64 -30 -26 0 -33 -6 -46 -40 -9
-22 -19 -40 -23 -40 -4 0 1 -17 11 -38 17 -34 18 -47 9 -122 -14 -109 -45
-140 -88 -85 -11 14 -25 25 -32 25 -7 0 -25 -11 -42 -25 -16 -14 -38 -25 -49
-25 -38 0 -150 -42 -156 -59 -3 -9 -13 -24 -21 -33 -13 -16 -13 -20 1 -35 17
-20 20 -43 18 -145 -1 -85 -27 -119 -107 -145 -30 -9 -54 -21 -54 -27 0 -6 25
-34 56 -63 55 -51 56 -52 49 -95 -11 -61 -16 -128 -13 -163 1 -16 3 -94 3
-173 0 -78 1 -142 2 -142 1 0 7 19 13 43 17 64 18 67 34 61 22 -8 18 -65 -6
-72 -21 -5 -23 -22 -5 -41 10 -10 8 -15 -7 -26 -10 -8 -23 -12 -27 -9 -5 3 -9
-47 -9 -111 0 -116 8 -145 39 -145 6 0 11 -5 11 -11 0 -8 4 -8 15 1 8 6 19 8
26 4 8 -5 7 -9 -5 -16 -18 -10 -23 -78 -5 -78 6 0 9 -10 7 -22 -3 -20 -9 -23
-53 -23 -43 0 -55 -5 -82 -32 -18 -18 -33 -40 -33 -50 0 -9 -12 -29 -27 -45
-23 -24 -28 -40 -36 -125 -5 -54 -9 -133 -8 -175 2 -81 -4 -101 -44 -144 -13
-14 -25 -38 -27 -52 -2 -16 -9 -27 -18 -27 -8 -1 -14 -6 -13 -13 2 -7 -4 -12
-12 -12 -8 0 -15 7 -15 15 0 12 -17 15 -82 17 -46 0 -95 0 -110 -1 -14 -1 -29
3 -33 8 -3 6 -18 11 -33 11 -34 0 -57 14 -48 29 4 6 1 11 -6 11 -7 0 -1 8 12
17 14 9 28 22 32 27 5 7 8 4 8 -6 0 -13 9 -18 33 -19 17 0 41 -2 52 -3 24 -3
20 -46 35 444 5 195 12 382 15 415 3 33 10 149 15 257 6 109 13 204 16 213 4
11 -4 16 -35 21 -23 4 -41 11 -41 16 0 6 6 8 14 5 8 -3 16 2 19 14 3 10 11 19
19 19 16 0 52 56 41 63 -13 8 -121 25 -238 37 -122 12 -301 36 -385 50 -30 5
-95 14 -145 20 -150 18 -138 7 -134 119 l4 96 -72 6 c-39 4 -98 16 -132 28
-47 16 -73 19 -121 14 l-60 -6 0 -853 0 -854 28 0 c45 0 67 10 77 33 8 17 18
22 48 21 56 -2 86 -21 93 -61 3 -18 3 -45 0 -59 -6 -23 -11 -25 -39 -20 -18 3
-61 10 -96 16 -35 6 -74 13 -87 16 l-24 6 0 -3136 0 -3136 8035 0 8035 0 0
5365 0 5365 -4020 0 c-3209 0 -4020 -3 -4020 -12 0 -7 6 -36 14 -64 10 -39 12
-111 8 -314 -4 -234 -7 -265 -23 -281 -16 -16 -17 -47 -20 -346 -2 -286 0
-333 15 -365 14 -32 16 -79 16 -318 0 -242 2 -280 15 -280 9 0 15 10 16 28 1
21 2 22 6 7 7 -28 21 -35 71 -35 67 0 129 -19 146 -45 9 -13 30 -25 51 -29 24
-5 53 -23 84 -52 43 -42 49 -44 81 -37 64 15 216 8 259 -12 34 -15 44 -16 78
-4 21 7 44 12 50 11 18 -4 53 17 53 31 0 13 36 31 83 43 15 3 30 10 33 15 3 5
19 9 36 9 17 0 48 5 69 11 30 9 42 9 54 -1 21 -17 18 -70 -5 -100 -11 -14 -20
-31 -20 -38 0 -7 -9 -22 -20 -34 -11 -12 -20 -34 -20 -48 0 -17 -10 -33 -29
-48 -23 -17 -30 -32 -36 -74 -4 -29 -11 -61 -17 -71 -5 -9 -5 -23 -1 -30 11
-18 10 -39 -4 -61 -6 -10 -9 -32 -6 -47 5 -29 5 -29 -41 -29 -25 0 -46 5 -46
10 0 6 -9 10 -20 10 -11 0 -19 -5 -17 -11 4 -19 -51 -29 -158 -30 -55 0 -158
-2 -230 -5 -205 -7 -334 24 -258 61 21 11 21 12 -11 23 -18 7 -37 12 -43 12
-15 0 -26 -32 -13 -40 18 -11 -37 -52 -82 -61 -24 -4 -67 -8 -95 -9 -29 0 -53
-4 -53 -8 0 -12 35 -43 42 -37 2 3 118 7 257 9 211 3 254 2 266 -11 13 -13 17
-13 31 1 13 14 50 16 252 16 130 0 247 -3 259 -6 27 -7 30 -20 25 -127 -5
-118 -3 -116 -202 -118 -85 -1 -165 -4 -178 -6 -48 -11 -44 -95 5 -114 23 -8
25 -14 20 -46 -9 -55 -23 -63 -52 -28 -21 25 -26 28 -35 15 -15 -22 -13 -27
23 -48 39 -24 132 -38 151 -23 7 6 50 13 95 16 66 3 81 1 81 -10 0 -9 -15 -17
-40 -21 -37 -6 -57 -24 -27 -24 8 0 22 -8 31 -19 16 -18 15 -19 -40 -26 -31
-4 -111 -11 -178 -16 -66 -5 -138 -11 -159 -15 l-37 -6 1 123 c0 68 5 148 12
177 8 39 8 55 0 60 -6 4 -15 20 -18 35 l-7 27 -20 -36 c-15 -28 -18 -49 -14
-90 16 -164 18 -274 6 -288 -17 -22 -265 -14 -290 9 -9 8 -21 15 -27 15 -5 0
-10 7 -10 15 0 16 54 45 84 45 36 0 68 56 78 136 6 47 4 52 -19 68 -20 12 -26
25 -26 51 0 18 -4 36 -9 39 -14 9 -212 10 -249 2 -28 -7 -33 -5 -41 16 l-9 23
-6 -25 c-3 -14 -7 -114 -8 -222 -3 -169 -6 -199 -21 -216 -15 -16 -17 -43 -17
-208 l0 -190 32 -12 c27 -10 34 -9 40 2 8 15 74 42 118 50 14 2 39 12 57 21
25 12 46 15 93 9 62 -7 86 -25 75 -57 -5 -10 3 -14 31 -13 21 1 39 6 41 12 4
13 84 7 144 -11 34 -10 50 -10 58 -2 6 6 11 8 11 3 0 -4 9 -1 21 7 16 12 29
13 56 5 27 -7 38 -6 51 5 31 28 100 37 127 18 6 -4 32 -16 58 -25 27 -10 46
-20 44 -23 -3 -2 -1 -20 5 -40 8 -29 6 -38 -8 -55 -12 -12 -14 -22 -8 -26 19
-12 10 -76 -13 -100 -19 -19 -25 -21 -43 -10 -15 10 -22 10 -32 0 -6 -6 -25
-12 -42 -12 -16 0 -26 3 -23 7 4 3 2 12 -4 19 -7 9 -7 19 0 32 6 11 7 22 3 26
-3 4 1 4 11 0 12 -4 17 -1 17 10 0 19 45 39 70 31 21 -7 37 12 23 26 -6 6 -46
12 -89 14 -44 2 -96 7 -116 10 -21 4 -38 3 -38 -1 0 -5 -14 -15 -31 -23 -44
-19 -56 -57 -28 -87 23 -25 55 -29 102 -11 20 7 31 7 40 -2 17 -17 -10 -31
-50 -26 -24 3 -33 0 -33 -10 0 -18 -82 -34 -185 -36 -163 -3 -362 -1 -445 6
-100 8 -137 -1 -118 -28 11 -15 29 -17 118 -16 218 3 380 -2 405 -11 23 -9 25
-14 26 -82 0 -40 4 -82 8 -92 7 -18 8 -18 14 5 4 13 7 54 7 91 0 87 5 90 141
78 57 -5 152 -9 210 -10 59 0 121 -3 139 -6 l32 -7 -4 -236 c-2 -163 -7 -243
-15 -258 -7 -11 -34 -31 -60 -44 -54 -26 -197 -37 -328 -24 -74 7 -77 8 -90
38 -7 18 -18 65 -25 105 -6 39 -15 72 -19 72 -3 0 -12 -26 -19 -57 -19 -86
-22 -93 -35 -93 -7 0 -20 9 -30 20 -9 11 -24 20 -33 20 -20 0 -106 -41 -116
-55 -5 -6 -8 -5 -8 4 0 9 -8 12 -25 9 -14 -3 -44 -2 -67 2 -53 10 -71 3 -66
-24 5 -26 -13 -46 -41 -46 -11 0 -32 -5 -47 -10 -19 -8 -31 -8 -38 0 -6 6 -16
64 -22 128 l-11 117 -1 -137 c-2 -124 -4 -140 -22 -158 -20 -20 -21 -32 -20
-221 1 -191 3 -203 25 -242 41 -74 66 -75 116 -2 38 56 90 69 104 26 6 -19 86
-46 125 -43 14 1 35 -3 48 -10 18 -9 30 -9 55 1 18 8 47 16 65 18 24 4 39 14
53 37 11 19 15 32 8 35 -6 2 -2 9 8 16 28 20 117 11 196 -19 49 -19 79 -24
105 -20 53 8 89 -8 94 -43 3 -26 -1 -31 -34 -45 -36 -16 -43 -13 -40 13 1 4
-10 19 -23 33 -25 27 -44 27 -76 -1 -18 -15 -14 -63 5 -63 6 0 2 -7 -8 -15
-11 -8 -16 -18 -13 -22 4 -3 -1 -15 -10 -26 -17 -20 -17 -20 2 -13 13 5 6 -7
-20 -34 l-40 -40 -160 5 c-127 5 -442 8 -537 5 -14 0 -18 -8 -18 -35 0 -30 3
-35 25 -35 25 0 30 -13 37 -94 2 -16 9 -31 15 -34 17 -5 28 27 17 47 -11 18
-7 51 7 51 5 0 9 -29 9 -64 0 -42 4 -66 13 -69 10 -3 10 -9 0 -26 -15 -24 -18
-141 -4 -141 5 0 13 -19 17 -42 5 -33 8 -38 14 -24 6 19 7 19 12 -2 4 -12 2
-35 -2 -50 -5 -15 -9 -20 -9 -12 -1 12 -5 11 -16 -4 -8 -11 -15 -16 -16 -10 0
5 -5 -2 -10 -15 -9 -23 -10 -23 -23 -6 -17 24 -34 12 -42 -30 -14 -76 -33 -22
-35 99 -2 92 -6 70 -18 -84 -5 -73 -14 -126 -20 -128 -7 -2 -11 -58 -11 -165
0 -89 -4 -179 -9 -200 -6 -23 -5 -52 0 -72 l9 -33 53 20 c28 11 60 24 69 29
25 13 48 11 49 -3 0 -7 2 -38 4 -68 l3 -55 -47 -23 c-25 -13 -56 -24 -68 -25
-13 -1 -23 -5 -23 -10 0 -4 -4 -5 -10 -2 -5 3 -10 -3 -10 -14 0 -10 -6 -21
-12 -24 -10 -3 -8 -10 6 -25 17 -20 18 -38 15 -254 -4 -225 -3 -233 15 -230
11 2 28 15 39 28 10 14 24 23 30 21 7 -2 20 7 30 20 11 13 29 23 44 23 24 0
25 -2 19 -43 -4 -24 -15 -49 -27 -59 -13 -11 -18 -22 -12 -30 4 -7 8 -17 8
-23 0 -17 53 -23 230 -26 136 -2 104 -4 -155 -9 -179 -3 -395 -3 -480 2 -85 4
-229 7 -320 8 -91 0 -175 3 -186 6 -16 4 -23 16 -27 48 -3 23 -19 72 -36 108
-23 51 -31 88 -36 160 -4 51 -11 111 -17 132 -13 51 -111 223 -202 356 -40 58
-108 166 -150 240 -80 138 -97 189 -112 325 -9 80 -19 96 -116 192 -82 80
-170 202 -183 254 -5 22 -1 30 22 46 55 40 116 65 168 70 46 5 63 1 120 -26
37 -17 72 -31 79 -31 6 0 40 -14 74 -30 88 -41 139 -41 188 2 45 39 64 82 64
142 0 48 32 99 70 111 14 5 20 15 20 38 0 25 7 36 29 48 24 14 30 26 36 68 4
28 16 62 26 75 18 23 26 25 90 23 63 -2 73 0 90 22 25 31 24 62 -6 141 -84
228 -86 234 -76 256 6 15 6 25 -1 32 -8 8 -8 15 0 25 55 66 125 291 125 402
-1 61 -31 169 -74 259 -17 37 -19 51 -10 81 15 57 -22 126 -128 232 -189 191
-286 254 -431 278 -41 7 -109 26 -150 43 -41 17 -94 36 -118 43 -79 23 -360
14 -473 -15 -68 -18 -207 -81 -234 -106 -11 -10 -60 -43 -110 -73 -49 -30 -91
-61 -94 -68 -4 -12 -2 -12 12 0 10 7 17 9 17 4 0 -5 -19 -17 -41 -27 -26 -12
-37 -21 -29 -26 8 -5 7 -9 -6 -14 -10 -4 -20 -2 -24 4 -4 7 -13 3 -25 -10 -10
-11 -13 -20 -7 -20 7 0 12 -5 12 -10 0 -6 -8 -10 -17 -8 -10 2 -18 -2 -18 -9
0 -6 -4 -15 -9 -20 -5 -5 -6 -3 -2 5 12 20 -5 14 -25 -10 -11 -11 -19 -31 -19
-44 0 -14 -8 -25 -20 -29 -11 -3 -20 -11 -20 -17 0 -6 -3 -9 -6 -6 -18 18 -93
-101 -124 -197 -11 -32 -14 -36 -20 -21 -4 12 -9 15 -13 9 -4 -6 -1 -16 7 -22
11 -10 9 -24 -13 -89 -15 -43 -38 -89 -51 -102 l-23 -23 7 129 c8 145 13 383
21 1009 3 237 7 498 10 580 3 83 10 301 15 485 6 184 15 416 21 515 11 187 26
1154 21 1308 l-3 87 -205 0 -204 0 0 -62z m4755 24 l80 -18 5 -185 c3 -101 4
-190 2 -196 -2 -7 -13 -13 -24 -13 -27 0 -58 -18 -58 -34 0 -21 35 -47 55 -40
20 8 35 -10 35 -42 0 -24 -21 -37 -44 -28 -8 3 -28 -4 -44 -16 -28 -21 -37
-22 -134 -16 -56 4 -139 7 -184 6 -62 -1 -83 2 -93 14 -27 32 -1 54 87 76 63
16 53 33 -15 26 -32 -4 -65 -2 -73 3 -13 9 -15 47 -15 238 l0 228 30 6 c67 15
309 9 390 -9z m-1040 -2 l26 -10 -2 -277 c-1 -154 -6 -286 -11 -297 -9 -17
-23 -18 -211 -14 -147 3 -209 8 -227 18 -14 8 -34 14 -45 14 -23 1 -22 13 2
69 14 33 15 43 4 73 -19 52 -5 388 17 406 10 9 76 15 216 18 111 4 202 7 203
8 1 1 13 -2 28 -8z m581 -2 c4 -6 7 -100 5 -207 -2 -153 -6 -207 -19 -244 -14
-39 -14 -51 -4 -67 19 -31 -1 -60 -41 -60 -18 0 -106 -2 -197 -5 -230 -7 -248
-7 -260 0 -14 8 -13 68 2 100 9 19 9 28 0 37 -9 9 -12 75 -12 223 0 210 0 212
23 222 34 16 493 17 503 1z m1984 -633 c9 -11 11 -40 7 -103 -6 -100 -12 -122
-36 -122 -9 0 -37 -15 -61 -32 -25 -18 -47 -32 -50 -30 -3 1 -8 -28 -11 -65
-5 -61 -6 -64 -9 -23 -2 25 -4 55 -4 67 -1 11 -4 25 -8 29 -5 4 -9 -28 -10
-72 -1 -62 -2 -67 -5 -24 -6 110 -27 132 -37 40 -2 -25 -5 -47 -6 -50 -5 -12
1 -113 7 -123 3 -6 1 -7 -5 -3 -16 9 -28 -42 -13 -57 6 -6 11 -7 11 -2 0 5 7
0 15 -11 9 -12 14 -14 15 -6 0 9 7 11 20 7 18 -6 19 0 23 67 l3 73 2 -77 c2
-66 5 -80 22 -90 48 -30 7 -49 -90 -41 -30 3 -117 4 -192 4 -83 -1 -138 2
-138 8 0 15 20 24 20 9 1 -8 6 -6 15 6 8 11 18 17 21 14 3 -4 26 0 51 7 25 8
51 11 59 8 8 -3 14 1 14 11 0 9 5 16 10 16 6 0 10 -3 10 -7 0 -5 11 -9 25 -9
14 -1 25 2 25 7 0 5 7 9 15 9 12 0 15 13 15 61 0 54 -2 60 -15 49 -13 -11 -15
-1 -15 82 0 96 -4 113 -24 100 -6 -4 -15 -7 -21 -7 -5 0 -13 -16 -16 -35 l-6
-35 -2 38 c-1 34 -4 38 -21 32 -13 -4 -20 -2 -20 6 0 7 -6 4 -15 -7 -13 -17
-14 -17 -15 -1 0 18 -20 24 -20 6 0 -8 -5 -8 -15 1 -13 10 -15 9 -15 -8 0 -12
-4 -24 -10 -27 -6 -4 -10 5 -10 19 0 32 -20 35 -21 4 0 -23 0 -23 -10 1 -5 14
-19 31 -29 38 -18 13 -20 26 -20 127 0 74 4 116 12 124 9 9 87 12 289 12 235
0 278 -2 289 -15z m261 -2 c22 -25 17 -122 -6 -139 -22 -16 -121 -19 -159 -4
-24 9 -26 14 -26 74 0 79 7 85 106 86 55 0 75 -4 85 -17z m-913 -116 c1 -65
-1 -125 -6 -134 -11 -18 -28 -21 -212 -35 l-35 -3 -5 -80 -5 -80 -8 63 c-4 34
-5 67 -2 72 3 6 1 10 -4 10 -6 0 -11 -15 -12 -32 l-1 -33 -13 40 -13 40 -1
-38 c-1 -30 -5 -37 -18 -35 -13 2 -19 -6 -24 -32 -5 -28 -7 -23 -8 27 -1 64
-20 100 -22 41 -1 -31 -1 -32 -9 -8 -7 22 -8 22 -10 5 -4 -29 -8 -93 -10 -145
-1 -40 -2 -42 -11 -20 -6 13 -7 35 -4 47 3 13 1 23 -5 23 -6 0 -10 -36 -10
-92 0 -57 4 -88 9 -82 5 5 11 25 14 44 3 29 4 27 5 -14 2 -41 4 -47 17 -36 8
6 19 9 25 5 5 -3 10 -1 10 6 0 9 3 9 14 0 11 -9 15 -9 20 1 5 11 7 11 12 0 5
-10 9 -9 20 5 13 17 13 17 14 -1 0 -39 15 -3 21 52 l6 57 2 -59 c1 -47 4 -57
16 -53 8 4 17 2 21 -4 4 -7 10 -6 19 1 9 8 14 6 19 -5 3 -9 10 -14 15 -10 5 3
13 0 17 -6 4 -8 9 -7 15 2 8 12 11 11 19 -1 8 -12 12 -13 19 -2 6 11 10 9 14
-7 4 -15 0 -21 -11 -22 -17 -1 -188 -5 -342 -9 -47 -1 -89 -1 -95 1 -5 1 -13
1 -17 0 -5 0 -8 6 -8 15 0 8 4 13 9 10 5 -3 11 11 15 32 10 60 7 190 -4 197
-7 5 -10 -19 -9 -69 1 -42 -1 -79 -5 -83 -3 -3 -6 53 -6 126 0 104 -3 137 -16
156 -22 34 -17 251 6 265 9 6 128 9 290 7 l275 -2 3 -118z m1470 -18 c6 -13
12 -60 13 -104 0 -44 1 -95 2 -113 1 -37 -9 -51 -41 -57 -19 -3 -22 1 -24 33
-2 68 3 256 9 265 8 13 27 2 41 -24z m-156 -148 c0 -57 -4 -107 -9 -112 -12
-12 -63 6 -80 27 -21 28 56 217 80 195 4 -5 8 -54 9 -110z m-112 -105 c-14
-14 -22 -2 -14 18 5 14 9 15 15 4 4 -7 4 -17 -1 -22z m-1593 -38 c-2 -13 -4
-3 -4 22 0 25 2 35 4 23 2 -13 2 -33 0 -45z m100 -10 c-3 -7 -5 -2 -5 12 0 14
2 19 5 13 2 -7 2 -19 0 -25z m-70 -30 c-3 -8 -6 -5 -6 6 -1 11 2 17 5 13 3 -3
4 -12 1 -19z m-30 -20 c-3 -7 -5 -2 -5 12 0 14 2 19 5 13 2 -7 2 -19 0 -25z
m-949 -318 c8 -64 10 -140 6 -195 -3 -49 -9 -130 -13 -180 l-6 -90 -115 0
-115 0 -5 75 -5 75 -75 8 c-47 4 -84 4 -98 -3 -33 -14 -78 -12 -92 5 -8 10
-10 37 -5 92 12 147 13 153 44 153 15 0 31 -4 37 -9 5 -4 21 -11 36 -15 24 -5
28 -2 44 42 23 63 31 72 65 72 32 0 59 23 59 50 0 26 13 29 125 27 l100 -2 13
-105z m458 78 l52 -31 6 -66 c9 -102 10 -109 22 -104 19 7 23 -34 19 -181 -3
-96 -8 -142 -16 -147 -21 -13 -166 -20 -329 -17 l-155 3 -7 95 c-18 231 -19
278 -8 335 7 33 14 75 16 94 2 19 9 38 16 43 7 4 85 8 173 8 l159 0 52 -32z
m192 -69 c-1 -13 -7 -23 -13 -22 -13 3 -18 30 -11 50 10 24 29 1 24 -28z
m-1234 -77 c3 -5 8 -60 12 -123 8 -132 1 -147 -54 -128 -29 10 -31 14 -38 75
-8 83 -1 164 17 175 18 11 56 12 63 1z m-5862 -281 c22 -1 29 -7 36 -33 5 -18
7 -36 5 -40 -2 -4 -36 -6 -75 -5 -67 2 -72 4 -95 34 -34 44 -23 56 46 49 31
-3 68 -5 83 -5z m455 -24 c-6 -20 -38 -20 -52 0 -12 15 -11 19 3 24 21 8 55
-8 49 -24z m131 3 c46 -21 61 -43 45 -69 -7 -11 -7 -21 1 -33 15 -25 4 -30
-53 -22 -40 5 -51 10 -51 25 0 10 5 21 10 24 15 10 12 35 -6 42 -9 3 -19 1
-23 -6 -5 -8 -12 -7 -25 2 -18 13 -18 14 0 35 23 27 46 27 102 2z m160 -3 c2
-11 -3 -17 -16 -17 -20 0 -36 23 -24 34 11 12 37 1 40 -17z m-444 -3 c25 -10
19 -22 -9 -16 -14 2 -25 8 -25 13 0 10 12 11 34 3z m5286 -69 c0 -8 -4 -15 -9
-15 -13 0 -22 16 -14 24 11 11 23 6 23 -9z m-5701 -297 c10 -25 -4 -54 -33
-72 -13 -9 -21 -6 -35 13 -15 20 -21 22 -40 12 -12 -7 -19 -16 -16 -22 10 -15
-45 -11 -60 5 -10 10 -24 12 -48 6 -28 -6 -36 -4 -46 13 -9 14 -10 22 -2 30
14 14 151 20 166 7 8 -7 18 -4 30 10 25 28 73 27 84 -2z m297 14 c15 -10 25
-42 14 -42 -6 0 -10 -11 -10 -25 0 -18 -5 -25 -19 -25 -11 0 -23 5 -26 10 -9
15 -35 12 -35 -4 0 -24 -16 -28 -90 -20 -49 5 -70 11 -70 20 0 8 -7 14 -15 14
-8 0 -15 5 -15 10 0 6 6 10 14 10 8 0 16 7 20 15 3 8 16 15 29 15 13 0 27 3
31 7 12 13 40 12 56 -1 16 -15 52 -7 65 13 7 13 35 14 51 3z m9278 -68 c-1
-39 -7 -121 -13 -166 -1 -3 -16 -11 -33 -17 -29 -11 -35 -9 -51 10 -13 16 -16
31 -11 56 4 18 1 53 -5 76 -22 78 12 115 89 96 23 -5 25 -10 24 -55z m185 52
c8 -10 10 -34 5 -78 -6 -54 -13 -70 -47 -110 -53 -64 -69 -69 -66 -20 2 21 0
42 -3 47 -3 6 -8 43 -10 84 -3 72 -2 75 22 82 42 12 87 10 99 -5z m-355 -13
c4 -14 3 -107 -3 -210 -1 -19 -68 -16 -75 3 -9 25 -7 72 4 79 6 4 4 17 -5 35
-18 34 -19 49 -5 84 8 21 16 26 44 26 24 0 36 -5 40 -17z m-186 -159 c2 -28
-3 -46 -16 -62 -17 -19 -20 -20 -40 -6 -28 20 -28 61 0 91 32 34 52 26 56 -23z
m-9828 -188 c0 -11 -19 -15 -25 -6 -3 5 1 10 9 10 9 0 16 -2 16 -4z m-101 -50
c15 -18 4 -66 -15 -66 -19 0 -28 24 -20 55 7 28 18 32 35 11z m7694 -83 c4 -2
7 -13 7 -23 0 -10 13 -27 29 -36 25 -15 30 -25 33 -66 5 -73 -2 -84 -34 -59
-33 26 -34 26 -70 -4 -30 -25 -32 -25 -192 -23 l-161 3 -8 90 c-5 59 -4 98 3
113 l10 24 188 -8 c103 -3 190 -9 195 -11z m255 -92 c-3 -95 -9 -111 -32 -92
-15 12 -32 153 -21 171 3 5 18 10 32 10 l25 0 -4 -89z m-6936 50 c32 -29 32
-30 16 -63 -9 -18 -20 -42 -24 -53 -7 -19 -8 -18 -12 5 -2 13 -13 35 -23 49
-22 27 -24 44 -9 72 14 25 15 24 52 -10z m8726 -43 c-7 -20 -57 -32 -74 -17
-14 12 -14 14 3 20 30 12 75 10 71 -3z m-8685 -147 c20 -12 37 -26 37 -29 -1
-4 -7 -34 -15 -66 -8 -33 -12 -63 -9 -68 6 -9 -6 -10 -81 -9 -27 1 -120 2
-205 2 -171 0 -208 8 -205 42 1 12 -3 25 -9 29 -6 4 -72 8 -146 9 -194 2 -264
10 -268 31 -3 14 3 16 35 13 35 -4 40 -1 50 26 10 26 16 29 55 30 23 1 48 0
53 -1 15 -4 362 -14 435 -13 108 2 163 11 189 32 20 15 28 16 36 7 6 -6 27
-22 48 -35z m6745 -191 l-3 -115 -47 -1 c-27 0 -48 3 -48 8 0 4 -7 8 -15 8
-11 0 -15 13 -16 53 0 28 -1 85 -2 126 l-2 74 29 4 c29 4 56 24 56 42 0 5 8
11 18 13 24 5 33 -64 30 -212z m-7695 156 c7 -22 6 -36 -7 -57 -17 -29 -17
-29 11 -40 l28 -12 -38 -10 c-43 -10 -56 -5 -38 17 17 21 6 34 -34 42 -47 8
-55 22 -38 62 13 31 16 33 60 30 41 -3 48 -6 56 -32z m1200 15 c8 -8 -28 -79
-41 -82 -4 -1 -31 -3 -60 -4 -52 -3 -53 -2 -72 34 -18 36 -18 39 -2 55 14 15
29 17 92 12 41 -3 78 -10 83 -15z m11332 -27 c-16 -13 -41 -27 -55 -31 -14 -3
-42 -15 -63 -25 -22 -11 -41 -18 -43 -15 -4 3 175 96 186 96 3 0 -8 -11 -25
-25z m-10939 -29 c10 -26 -16 -47 -50 -39 -44 9 -55 22 -32 40 26 19 75 18 82
-1z m-126 -10 c0 -8 -7 -15 -15 -15 -13 0 -14 3 -3 15 16 18 18 18 18 0z
m-2930 -44 c0 -5 -9 -7 -20 -4 -11 3 -20 7 -20 9 0 2 9 4 20 4 11 0 20 -4 20
-9z m13820 4 c0 -2 -10 -9 -22 -15 -22 -11 -22 -10 -4 4 21 17 26 19 26 11z
m-13536 -25 c33 -4 73 -6 90 -4 20 3 46 -2 71 -15 21 -12 53 -21 70 -21 26 -1
27 -2 12 -11 -18 -11 -69 -7 -172 11 -27 5 -79 11 -114 14 -36 3 -69 10 -74
15 -16 16 4 33 32 26 14 -3 53 -10 85 -15z m1424 3 c2 -8 -6 -13 -22 -13 -28
0 -43 15 -24 23 20 8 41 3 46 -10z m1082 -19 c0 -8 -9 -14 -20 -14 -22 0 -26
10 -8 28 13 13 28 7 28 -14z m10196 -2 c-2 -9 -6 -33 -10 -53 -3 -20 -15 -44
-26 -54 -11 -10 -20 -22 -20 -27 0 -5 -6 -16 -14 -24 -12 -12 -17 -9 -35 22
-12 19 -21 36 -21 37 0 1 26 30 58 63 56 61 74 70 68 36z m-10423 1 c-7 -2
-19 -2 -25 0 -7 3 -2 5 12 5 14 0 19 -2 13 -5z m-1944 -32 c12 -8 9 -11 -11
-16 -29 -8 -52 1 -43 16 8 12 36 11 54 0z m6950 -135 c-13 -14 -29 5 -31 35
-3 54 2 100 12 94 6 -3 11 0 11 7 1 7 5 -18 9 -57 4 -39 4 -74 -1 -79z m-4443
118 c18 -14 16 -15 -30 -10 -27 3 -60 6 -73 6 -14 0 -21 4 -18 10 10 16 99 12
121 -6z m174 -34 c24 -15 2 -25 -30 -13 -17 6 -32 7 -38 1 -5 -5 -17 -5 -27
-2 -18 7 -18 8 1 15 27 11 76 10 94 -1z m-1888 -91 c-2 -35 -4 -95 -6 -134 -3
-78 -19 -149 -27 -125 -3 8 -5 38 -4 67 1 29 -2 50 -6 47 -11 -6 -21 14 -13
27 4 8 9 7 15 -2 6 -9 9 -2 9 21 0 21 -3 30 -8 22 -6 -9 -14 -7 -30 8 -16 15
-21 31 -20 60 1 21 -4 46 -11 54 -10 12 -10 18 0 29 10 10 21 11 58 1 l46 -11
-3 -64z m585 41 c4 -23 13 -32 37 -38 l31 -8 3 -198 c1 -129 -2 -216 -10 -250
-6 -28 -12 -112 -13 -186 -2 -168 0 -160 -29 -160 -36 0 -55 10 -50 25 3 7 -2
15 -10 18 -24 9 -21 57 3 57 11 0 27 7 36 16 17 17 17 74 2 289 -3 45 0 85 9
113 8 23 14 76 14 116 l0 73 -32 9 c-33 10 -33 10 -34 74 -1 73 1 80 22 80 8
0 17 -13 21 -30z m10822 13 c-1 -25 -17 -71 -18 -54 -1 7 -7 11 -16 7 -18 -6
-18 -7 -4 33 12 33 40 43 38 14z m-10937 -24 c-4 -37 -11 -51 -22 -44 -11 7
-14 58 -3 69 13 13 28 -1 25 -25z m-138 -89 c0 -30 -4 -98 -8 -150 -5 -52 -8
-106 -8 -120 0 -13 -7 -30 -16 -37 -13 -10 -14 -14 -4 -21 7 -5 11 -17 10 -28
-1 -10 2 -41 6 -68 6 -35 5 -50 -4 -56 -6 -4 -11 -10 -11 -14 6 -44 -1 -106
-12 -106 -10 0 -13 27 -10 123 2 67 4 147 4 177 2 62 7 82 20 74 5 -3 9 0 9 5
0 6 -5 11 -10 11 -6 0 -10 38 -9 99 1 54 -2 104 -6 110 -4 7 -4 23 -1 37 5 19
12 25 29 22 20 -3 22 -9 21 -58z m635 26 c8 -10 10 -94 5 -312 -3 -165 -5
-315 -4 -334 2 -60 -10 -118 -26 -124 -10 -4 -29 8 -51 30 l-35 37 27 21 c25
20 27 28 31 113 4 97 -1 108 -46 115 -24 3 -25 6 -26 73 -2 85 7 105 46 105
34 0 38 10 42 102 2 46 7 68 16 68 6 0 12 5 12 10 0 6 -7 10 -15 10 -11 0 -13
11 -11 48 2 26 4 48 5 50 3 7 20 0 30 -12z m334 -62 c11 -74 0 -448 -12 -452
-6 -2 -8 -51 -5 -114 5 -133 2 -148 -35 -148 -19 0 -34 -9 -50 -31 -30 -40
-43 -27 -47 43 -4 66 3 77 47 81 32 2 34 5 39 42 3 22 5 72 5 110 l0 70 -34 5
c-45 7 -61 32 -37 59 10 11 25 17 33 14 25 -10 10 20 -15 32 -31 14 -23 37 15
47 38 10 39 14 48 153 3 55 7 109 9 120 2 11 4 24 5 28 0 5 7 7 14 5 6 -3 16
-31 20 -64z m-2069 -111 c-5 -346 -30 -769 -46 -779 -18 -12 10 897 29 930 14
22 19 -25 17 -151z m12196 118 c5 -17 5 -31 0 -31 -8 0 -20 34 -20 59 0 21 9
8 20 -28z m365 -1 c-9 -15 -45 -32 -45 -22 0 5 10 14 23 20 29 14 29 14 22 2z
m-8005 -9 c0 -5 -7 -12 -16 -15 -14 -5 -15 -4 -4 9 14 17 20 19 20 6z m-3920
-41 c0 -5 -7 -10 -15 -10 -8 0 -15 5 -15 10 0 6 7 10 15 10 8 0 15 -4 15 -10z
m11560 -40 c0 -5 -7 -10 -15 -10 -8 0 -15 5 -15 10 0 6 7 10 15 10 8 0 15 -4
15 -10z m-11580 -65 c-7 -8 -16 -13 -20 -10 -5 3 -11 1 -15 -5 -10 -16 -25
-12 -25 6 0 10 6 14 15 11 8 -4 17 -2 20 3 4 6 13 10 22 10 13 0 13 -3 3 -15z
m11629 -2 c0 -5 -30 -22 -67 -40 -146 -69 -599 -296 -632 -316 -19 -11 -38
-26 -42 -31 -4 -6 -12 -12 -18 -12 -5 -1 -14 -2 -20 -3 -5 0 -10 -13 -10 -27
0 -14 -5 -35 -11 -46 -7 -13 -7 -18 -1 -14 6 3 13 2 16 -3 3 -5 -1 -12 -10
-15 -8 -3 -13 -10 -9 -15 8 -15 -19 -29 -242 -131 l-201 -93 -7 -96 c-3 -53
-10 -132 -15 -176 -11 -91 -50 -559 -80 -935 -29 -383 -48 -562 -60 -574 -7
-7 -10 -4 -10 10 0 24 26 340 45 549 9 88 20 228 25 310 6 83 15 204 21 270 5
66 12 158 15 205 2 47 9 148 16 225 6 77 12 185 13 240 1 90 -1 102 -19 118
-21 17 -21 17 4 9 27 -10 50 -6 50 8 0 4 -9 6 -20 3 -12 -3 -20 0 -20 7 0 7
-7 10 -15 6 -18 -6 -20 10 -3 20 6 4 14 2 16 -4 4 -13 33 -17 31 -4 -3 18 2
32 11 32 6 0 10 -6 9 -12 -7 -53 10 -60 62 -25 23 16 34 31 36 51 2 35 1 34
38 36 47 3 57 1 49 -11 -18 -30 148 41 242 104 23 15 45 27 48 27 4 0 109 50
234 112 257 126 513 247 525 248 4 0 7 -3 6 -7z m-10694 -158 c0 -68 -1 -70
-25 -70 -22 0 -25 4 -23 30 2 17 3 45 3 64 1 42 7 53 28 49 14 -3 17 -16 17
-73z m-795 8 c0 -27 -27 -27 -54 -1 -16 16 -6 35 13 24 5 -3 12 2 15 11 6 15
8 15 16 3 6 -8 10 -25 10 -37z m1108 5 c0 -24 1 -52 2 -62 1 -26 -17 -43 -31
-29 -15 15 -1 133 16 133 9 0 13 -15 13 -42z m332 30 c0 -22 -17 -41 -29 -34
-19 12 -13 46 9 46 11 0 20 -6 20 -12z m-5 -103 c0 -23 -4 -30 -20 -30 -21 0
-31 25 -21 51 11 28 41 12 41 -21z m9515 -85 c0 -5 -7 -10 -16 -10 -8 0 -12 5
-9 10 3 6 10 10 16 10 5 0 9 -4 9 -10z m-32 -42 c-2 -18 -10 -23 -33 -25 -21
-1 -23 0 -7 4 13 2 21 10 19 16 -3 7 -10 11 -16 9 -7 -1 -10 2 -6 8 3 5 15 10
26 10 15 0 20 -6 17 -22z m-10932 -135 c-7 -16 -8 -16 -16 -2 -5 8 -6 26 -3
39 6 24 6 24 16 3 5 -12 6 -30 3 -40z m10764 42 c-7 -9 -15 -13 -17 -11 -7 7
7 26 19 26 6 0 6 -6 -2 -15z m-10435 -51 c0 -28 -4 -39 -15 -39 -16 0 -26 45
-16 72 11 28 31 7 31 -33z m1109 1 c8 -9 13 -22 10 -29 -3 -7 -6 -33 -7 -57
-2 -37 -5 -44 -22 -44 -17 0 -21 9 -27 59 -10 77 10 107 46 71z m8231 -64 c-2
-4 -5 -27 -6 -52 0 -24 -3 -59 -6 -77 -5 -32 -6 -32 -20 -13 -10 15 -12 36 -8
73 11 92 14 101 30 88 8 -7 13 -15 10 -19z m85 19 c0 -5 6 -10 14 -10 15 0 28
-54 28 -115 0 -41 -8 -55 -30 -54 -14 0 -13 2 3 8 19 8 18 9 -5 12 -24 4 -25
7 -28 87 -2 52 1 82 8 82 5 0 10 -4 10 -10z m-2434 -103 c-9 -19 -17 -41 -17
-49 -1 -7 -4 3 -8 22 -3 19 -4 50 -2 69 l3 33 21 -20 c19 -20 19 -22 3 -55z
m2763 11 c0 -28 -2 -30 -9 -13 -7 17 -9 17 -9 3 -1 -23 -41 -46 -41 -23 0 19
31 56 42 49 4 -3 8 0 8 5 0 6 2 11 5 11 3 0 5 -15 4 -32z m-199 7 c1 13 5 8
12 -14 11 -40 3 -84 -15 -78 -19 6 -31 51 -22 83 7 26 8 27 15 9 l9 -20 1 20z
m-7060 -25 c0 -5 -4 -10 -10 -10 -5 0 -10 5 -10 10 0 6 5 10 10 10 6 0 10 -4
10 -10z m452 -47 c-3 -16 -7 -22 -10 -15 -4 13 4 42 11 42 2 0 2 -12 -1 -27z
m7388 -34 c0 -17 6 -19 50 -17 61 4 66 -12 11 -32 -30 -11 -41 -20 -41 -35 0
-25 -22 -75 -32 -75 -5 0 -8 -13 -8 -30 0 -16 -5 -30 -11 -30 -7 0 -9 11 -6
29 3 16 3 31 0 35 -9 9 -33 -14 -33 -33 0 -18 -35 -61 -50 -61 -5 0 -16 7 -25
16 -10 11 -24 14 -43 10 -19 -5 -23 -4 -12 3 12 9 12 11 -3 17 -11 4 -16 13
-12 24 3 9 1 30 -5 45 -13 34 -3 95 16 95 8 0 14 5 14 11 0 6 9 8 20 4 14 -4
22 -1 26 10 6 13 9 14 15 3 6 -9 11 -10 17 -2 10 15 84 43 99 37 7 -3 13 -14
13 -24z m-7393 -31 c-3 -8 -6 -5 -6 6 -1 11 2 17 5 13 3 -3 4 -12 1 -19z
m-4060 -70 c-3 -8 -6 -5 -6 6 -1 11 2 17 5 13 3 -3 4 -12 1 -19z m4072 -92
c-5 -6 -8 12 -8 45 l2 54 7 -45 c4 -25 4 -49 -1 -54z m-1562 -3 c15 -34 12
-189 -5 -219 -8 -15 -8 -24 0 -32 8 -8 8 -15 -1 -26 -7 -8 -15 -35 -17 -58 -2
-24 -6 -63 -10 -88 -4 -25 -6 -103 -5 -175 1 -71 -2 -136 -8 -144 -5 -8 -18
-12 -30 -8 -14 3 -21 0 -21 -9 0 -8 5 -14 10 -14 6 0 20 -9 32 -19 16 -16 19
-27 14 -53 -4 -18 -8 -41 -9 -50 -2 -10 -6 -21 -10 -24 -4 -4 -7 -16 -7 -26 0
-10 -11 -23 -25 -30 -13 -6 -22 -15 -18 -21 3 -5 9 -3 14 4 6 10 9 6 9 -13 0
-15 7 -31 16 -36 10 -6 14 -20 12 -43 -3 -31 -6 -34 -37 -35 -19 0 -36 -5 -38
-11 -7 -19 -33 -3 -33 19 0 10 -4 17 -9 14 -4 -3 -17 5 -28 17 -16 17 -19 28
-12 45 4 12 13 22 19 22 5 0 10 -10 11 -22 0 -14 2 -17 6 -8 2 8 7 22 11 30 3
8 11 38 17 67 9 43 9 55 -3 67 -17 17 -7 56 14 56 18 0 18 9 0 52 -13 31 -13
37 5 64 26 39 24 63 -6 74 -20 8 -25 16 -25 45 0 22 8 43 20 55 25 25 25 37 1
50 -26 14 -42 13 -39 -2 1 -7 -3 -23 -10 -35 -7 -13 -10 -23 -6 -23 3 0 2 -6
-4 -13 -8 -9 -8 -24 -1 -50 7 -26 7 -43 -1 -58 -7 -11 -10 -26 -7 -32 2 -7 -1
-17 -7 -23 -9 -9 -13 10 -13 80 -1 59 2 93 10 98 20 12 0 20 -21 9 -39 -21
-126 -11 -136 15 -3 8 -3 49 1 90 7 92 21 103 105 86 44 -8 54 -8 64 6 6 8 9
24 6 34 -4 15 0 17 27 12 28 -6 31 -4 31 20 0 15 -8 31 -20 38 -24 15 -26 36
-5 44 11 4 15 21 15 56 0 70 21 104 83 133 29 13 54 24 57 25 3 0 11 -12 17
-27z m-1349 -35 c-2 -39 -7 -53 -18 -53 -10 0 -16 12 -18 39 -4 47 3 66 23 66
13 0 15 -10 13 -52z m162 16 c0 -26 -17 -33 -26 -9 -8 20 3 48 16 40 5 -3 10
-17 10 -31z m175 -5 c6 -19 -9 -49 -25 -49 -15 0 -28 56 -18 74 11 20 33 7 43
-25z m152 16 c1 -5 -2 -17 -7 -25 -9 -13 -11 -13 -20 0 -15 23 -12 42 7 38 9
-2 18 -7 20 -13z m663 -5 c6 -12 10 -40 8 -63 -3 -37 -6 -42 -29 -45 -33 -4
-41 15 -33 79 5 39 11 49 25 49 10 0 23 -9 29 -20z m-502 -12 c-5 -32 -28 -35
-28 -4 0 17 5 26 16 26 10 0 14 -7 12 -22z m-1162 -5 c17 -17 18 -17 11 0 -5
13 -3 17 5 15 7 -3 14 -17 16 -32 3 -25 1 -26 -25 -20 -39 9 -42 12 -40 34 2
25 10 25 33 3z m-813 -43 c54 -10 67 -16 65 -29 -2 -12 -16 -17 -57 -18 -29
-1 -55 -4 -57 -6 -2 -2 0 -18 5 -35 6 -20 6 -45 -1 -68 -9 -34 -11 -36 -41
-29 -18 3 -57 9 -87 12 -90 9 -129 63 -46 63 93 0 136 23 120 65 -5 13 -14 15
-38 10 -66 -16 -146 -3 -146 24 0 10 3 21 7 24 9 10 197 1 276 -13z m2792 -40
c-5 -8 -11 -8 -17 -2 -6 6 -7 16 -3 22 5 8 11 8 17 2 6 -6 7 -16 3 -22z m115
-5 c0 -19 -4 -23 -17 -18 -11 4 -12 8 -5 11 7 2 12 10 12 18 0 8 2 14 5 14 3
0 5 -11 5 -25z m-3609 -98 c-8 -8 -11 2 -11 34 0 59 14 73 18 19 2 -24 -2 -48
-7 -53z m3150 0 c15 4 19 0 19 -21 0 -27 -13 -35 -26 -15 -4 8 -9 8 -17 0 -6
-6 -22 -11 -36 -11 -15 0 -21 4 -15 8 6 4 14 17 18 30 6 17 11 20 23 13 9 -4
24 -6 34 -4z m-1211 -53 c0 -8 -4 -12 -10 -9 -5 3 -10 10 -10 16 0 5 5 9 10 9
6 0 10 -7 10 -16z m320 -17 c0 -12 6 -29 13 -38 17 -23 15 -342 -3 -364 -8 -9
-10 -27 -6 -47 4 -18 9 -59 11 -90 l4 -58 -55 0 c-52 0 -55 1 -49 21 5 16 4
19 -5 14 -10 -6 -11 -1 -5 21 4 16 7 34 7 39 -4 48 -3 276 1 282 13 20 -14 35
-72 40 -68 6 -70 9 -74 93 l-2 45 90 5 c89 5 90 5 93 32 5 42 52 46 52 5z
m639 24 c17 -11 7 -41 -14 -41 -8 0 -15 -5 -15 -11 0 -5 10 -9 22 -7 37 5 46
-32 49 -197 2 -173 -5 -357 -15 -374 -4 -6 -29 -11 -56 -11 -41 0 -50 3 -55
21 -4 12 -4 92 0 178 4 102 3 165 -4 183 -10 26 -13 27 -54 22 -57 -8 -72 8
-81 82 -6 49 -4 61 12 76 15 15 27 17 61 12 24 -4 51 -16 62 -27 10 -11 21
-18 24 -15 8 8 17 50 16 77 -2 39 17 52 48 32z m-1747 -18 c0 -10 0 -30 -1
-45 -1 -16 2 -28 7 -28 6 0 13 -51 16 -112 3 -62 8 -134 12 -160 4 -33 0 -64
-15 -110 -19 -57 -36 -187 -45 -338 -3 -57 -22 -130 -34 -130 -4 0 -13 9 -19
19 -16 25 -44 20 -84 -14 -35 -29 -62 -31 -103 -10 -36 19 -64 19 -146 -1 -90
-21 -107 -15 -102 34 4 36 1 41 -33 61 -20 11 -41 19 -46 16 -5 -4 -12 -24
-15 -46 -7 -44 -26 -58 -50 -38 -13 11 -14 39 -8 223 6 202 16 268 28 195 4
-19 6 -43 6 -54 -1 -47 20 -207 31 -226 16 -30 31 -11 42 53 10 59 11 80 8
221 -2 61 2 103 9 112 6 7 12 26 13 42 2 22 8 29 27 31 14 2 30 9 35 15 6 7
21 12 35 12 19 0 26 6 28 23 2 13 11 26 20 30 50 18 51 73 2 90 -26 9 -49 46
-37 59 3 2 48 -1 100 -8 86 -11 98 -11 121 5 14 9 26 24 26 34 0 10 8 28 18
40 14 18 27 22 85 22 57 0 67 -3 69 -17z m-845 -30 c7 -16 23 -54 37 -85 18
-43 23 -65 17 -86 -5 -15 -12 -113 -16 -217 -9 -233 -12 -281 -18 -292 -3 -4
-8 -32 -12 -61 -11 -80 -30 -61 -30 30 0 70 -2 78 -27 101 -24 23 -25 26 -12
46 9 12 14 37 12 59 -3 33 -6 37 -34 40 -31 3 -109 -38 -99 -52 3 -3 1 -3 -4
1 -11 9 -13 54 -12 195 l1 97 43 -1 c61 -1 106 24 100 55 -3 14 0 28 6 31 17
11 13 26 -8 26 -10 0 -22 7 -25 16 -4 9 -9 14 -13 11 -3 -4 -12 -2 -20 4 -11
10 -8 16 12 35 15 13 38 24 52 24 22 0 25 4 21 25 -7 34 15 32 29 -2z m1641
-60 c-2 -18 0 -33 5 -33 6 0 7 -30 4 -72 -3 -40 -2 -81 2 -92 4 -10 3 -42 -2
-71 -8 -40 -15 -55 -30 -59 -13 -3 -21 1 -24 14 -5 17 -8 16 -30 -11 -17 -20
-24 -37 -20 -55 2 -13 1 -27 -4 -30 -5 -2 -9 44 -10 103 -1 59 -2 128 -3 153
l-1 45 -57 0 c-31 0 -59 3 -63 7 -4 4 -3 29 1 55 9 47 10 48 44 45 19 -2 41
-9 48 -14 16 -13 49 15 54 44 2 13 16 25 38 32 32 10 36 9 43 -9 5 -11 7 -35
5 -52z m632 42 c0 -7 5 -15 11 -17 20 -7 16 -375 -5 -395 -10 -10 -7 -25 4
-18 6 4 10 -6 10 -24 0 -16 -4 -33 -10 -36 -5 -3 -10 -12 -9 -18 0 -9 2 -9 6
1 7 19 22 14 16 -5 -7 -26 -63 -59 -98 -58 -27 0 -30 4 -33 34 -2 18 1 38 6
43 6 6 6 22 1 43 -6 20 -6 42 0 57 5 13 10 71 12 128 l4 105 -72 -2 c-82 -2
-80 -5 -79 92 1 53 4 61 26 72 31 14 72 7 99 -18 26 -25 31 -24 66 10 30 29
45 31 45 6z m-2438 -160 c3 -16 1 -25 -7 -25 -7 0 -11 10 -10 23 4 37 11 38
17 2z m374 -191 c-5 -13 -10 -14 -18 -6 -6 6 -8 18 -4 28 5 13 10 14 18 6 6
-6 8 -18 4 -28z m3171 -46 c-3 -8 -6 -5 -6 6 -1 11 2 17 5 13 3 -3 4 -12 1
-19z m-1767 -8 c0 -5 7 -7 15 -4 10 4 15 0 15 -15 0 -14 -5 -19 -15 -15 -17 7
-20 -7 -5 -22 18 -18 20 -54 4 -54 -11 0 -13 -6 -9 -21 6 -18 4 -20 -17 -14
-31 10 -35 15 -19 24 19 12 -4 24 -29 16 -14 -4 -20 -2 -20 8 0 17 20 27 58
28 15 0 21 3 15 6 -15 6 -18 73 -3 73 6 0 10 -4 10 -10z m1180 -2 c0 -9 4 -8
10 2 8 13 10 13 10 -1 0 -12 7 -15 25 -11 23 4 25 1 26 -34 1 -62 -2 -128 -8
-137 -3 -4 -10 -4 -16 1 -7 5 -41 9 -75 9 -41 0 -67 4 -72 12 -10 18 -1 51 15
51 7 0 18 6 24 14 9 11 6 18 -14 33 -22 15 -25 24 -20 46 6 24 12 27 51 27 28
0 44 -4 44 -12z m597 -30 c-3 -8 -6 -5 -6 6 -1 11 2 17 5 13 3 -3 4 -12 1 -19z
m-147 -8 c8 -5 12 -12 8 -15 -10 -10 -49 5 -43 16 8 11 16 11 35 -1z m-810
-10 c0 -5 -4 -10 -9 -10 -6 0 -13 5 -16 10 -3 6 1 10 9 10 9 0 16 -4 16 -10z
m-280 -75 c0 -8 -4 -15 -10 -15 -5 0 -10 7 -10 15 0 8 5 15 10 15 6 0 10 -7
10 -15z m309 -41 c15 -15 14 -16 -6 -11 -22 5 -22 4 -5 -22 16 -25 16 -26 -3
-11 -28 21 -35 32 -28 45 4 5 3 7 -2 3 -9 -8 -45 9 -45 21 0 14 71 -6 89 -25z
m-2639 15 c0 -8 4 -8 14 0 10 9 15 8 19 -3 8 -20 -8 -29 -33 -21 -20 6 -28 35
-10 35 6 0 10 -5 10 -11z m3540 -11 c0 -30 -15 -52 -29 -44 -6 4 -11 18 -11
32 0 14 4 22 10 19 6 -3 10 -1 10 4 0 6 5 11 10 11 6 0 10 -10 10 -22z m-844
-33 c10 -8 14 -15 8 -15 -5 0 -19 7 -30 15 -10 8 -14 15 -8 15 5 0 19 -7 30
-15z m361 -47 c-3 -7 -5 -2 -5 12 0 14 2 19 5 13 2 -7 2 -19 0 -25z m-1401
-123 c14 -3 23 -15 27 -30 4 -22 -2 -29 -34 -48 -21 -12 -39 -27 -39 -33 0 -7
-7 -14 -14 -17 -10 -4 -13 -1 -9 9 3 8 -8 26 -26 43 -36 34 -38 44 -13 69 18
18 44 20 108 7z m1389 -11 c0 -10 4 -25 9 -33 5 -8 -1 -7 -18 5 -20 13 -24 19
-14 25 11 7 11 9 0 9 -7 0 -10 5 -7 11 10 16 30 5 30 -17z m-1047 4 c6 -7 12
-31 14 -53 4 -39 4 -39 46 -40 43 0 45 -2 43 -45 -1 -14 -1 -42 -1 -63 0 -37
-19 -45 -21 -9 0 12 -3 10 -10 -6 -5 -13 -13 -20 -19 -17 -5 3 -10 1 -10 -5 0
-6 -5 -8 -11 -4 -6 3 -9 16 -6 28 8 37 -7 69 -38 80 -75 27 -112 75 -95 121 8
21 16 25 54 25 24 0 48 -6 54 -12z m330 0 c21 -21 11 -122 -13 -132 -7 -2 -36
6 -64 19 -50 24 -51 25 -51 68 0 24 3 47 7 50 11 12 108 8 121 -5z m105 -114
c10 -100 3 -140 -26 -149 l-22 -8 23 -4 c20 -4 22 -10 22 -69 0 -44 4 -63 11
-59 6 4 5 -2 -3 -14 -14 -22 -52 -28 -78 -11 -17 10 -22 49 -9 65 4 6 11 30
15 53 5 33 3 43 -9 48 -13 5 -16 37 -7 64 1 3 1 15 0 27 -2 30 28 125 43 135
24 15 32 0 40 -78z m131 29 c32 -36 36 -45 26 -63 -16 -30 -62 -24 -71 10 -10
37 -11 116 0 105 4 -6 25 -29 45 -52z m571 -21 c-6 -6 -35 18 -35 29 0 5 9 1
20 -8 11 -9 17 -19 15 -21z m-1371 -24 c-8 -13 -31 -9 -37 6 -3 8 -3 16 0 19
8 8 43 -16 37 -25z m1753 12 c-3 -10 0 -21 7 -23 7 -3 8 -8 1 -15 -6 -7 -16
-8 -24 -3 -16 10 -7 61 10 61 6 0 9 -9 6 -20z m-3791 -45 c7 -37 -7 -65 -31
-65 -20 0 -27 30 -14 67 14 43 36 42 45 -2z m8394 -22 c0 -71 -15 -82 -18 -13
-2 36 2 60 8 60 5 0 10 -21 10 -47z m-7640 -4 c0 -15 -28 -16 -61 -2 -30 13
-32 16 -14 22 19 8 75 -7 75 -20z m3017 -31 c-3 -8 -6 -5 -6 6 -1 11 2 17 5
13 3 -3 4 -12 1 -19z m-52 -78 c-3 -5 -18 -9 -33 -9 l-27 1 30 8 c17 4 31 8
33 9 2 0 0 -3 -3 -9z m45 -4 c0 -3 -4 -8 -10 -11 -5 -3 -10 -1 -10 4 0 6 5 11
10 11 6 0 10 -2 10 -4z m-165 -27 c19 -9 18 -9 -2 -5 -27 5 -40 -11 -23 -27
10 -9 11 -9 5 3 -7 12 -6 13 6 2 12 -11 12 -14 -1 -22 -19 -12 -34 12 -25 40
7 22 11 23 40 9z m135 1 c0 -5 -17 -10 -37 -9 -34 1 -35 2 -13 9 36 11 50 11
50 0z m490 -136 c0 -8 -5 -12 -10 -9 -6 4 -8 11 -5 16 9 14 15 11 15 -7z
m5220 -14 c0 -5 -2 -10 -4 -10 -3 0 -8 5 -11 10 -3 6 -1 10 4 10 6 0 11 -4 11
-10z m-6960 -55 c0 -19 -4 -35 -10 -35 -5 0 -10 16 -10 35 0 19 5 35 10 35 6
0 10 -16 10 -35z m6668 17 c2 -7 0 -12 -5 -11 -20 3 -34 -2 -28 -11 10 -16 -6
-35 -16 -19 -8 12 -11 12 -18 -1 -5 -8 -7 -18 -5 -22 3 -4 -7 -13 -21 -18 -20
-8 -25 -15 -20 -30 4 -11 2 -20 -4 -20 -17 0 -13 50 4 56 8 4 15 13 15 21 0 9
14 29 31 45 30 30 59 34 67 10z m-6480 -34 c18 -18 14 -38 -8 -38 -13 0 -18
-5 -14 -15 4 -8 1 -15 -5 -15 -6 0 -13 11 -17 25 -3 14 -10 22 -15 19 -5 -3
-9 -1 -9 3 0 14 23 33 40 33 9 0 21 -5 28 -12z m16 -63 c-4 -8 -7 -15 -9 -15
-2 0 -5 7 -9 15 -3 9 0 15 9 15 9 0 12 -6 9 -15z m8301 -41 c171 -14 312 -28
314 -30 11 -10 -12 -11 -104 -4 -55 5 -192 16 -305 25 -112 9 -222 20 -245 25
l-40 8 35 1 c19 1 175 -11 345 -25z m-1983 -136 c-13 -13 -26 8 -17 30 6 16 7
16 17 -1 7 -13 7 -22 0 -29z m-4844 0 c5 -7 11 -53 13 -103 l4 -90 -59 -7
c-81 -10 -86 -5 -82 95 5 111 8 117 66 117 26 0 52 -6 58 -12z m4862 -93 c7
-22 21 -55 32 -73 26 -43 17 -52 -12 -12 -30 42 -67 162 -41 135 5 -6 14 -28
21 -50z m2017 18 c29 -9 58 -22 64 -29 15 -18 14 -18 -69 11 -39 14 -93 25
-119 26 -38 1 -43 3 -23 8 31 10 79 4 147 -16z m-2734 -19 c-7 -18 -53 -19
-53 -1 0 9 12 14 29 15 22 0 28 -3 24 -14z m-5763 -42 c24 -30 14 -41 -33 -37
-36 3 -56 26 -50 59 5 22 8 23 34 14 16 -5 38 -22 49 -36z m5815 16 c14 -6 25
-17 25 -25 0 -7 4 -13 9 -13 20 0 21 -40 2 -78 -27 -53 -41 -62 -105 -69 -43
-4 -58 -2 -71 11 -9 9 -12 16 -6 16 6 0 11 7 11 16 0 8 14 20 30 26 34 11 50
34 50 72 0 30 9 56 21 56 4 0 20 -5 34 -12z m-4094 -59 c-5 -13 -10 -19 -10
-12 -1 15 10 45 15 40 3 -2 0 -15 -5 -28z m-23 -4 c-3 -3 -9 2 -12 12 -6 14
-5 15 5 6 7 -7 10 -15 7 -18z m4432 -16 c16 0 19 -3 10 -6 -8 -4 -21 -13 -29
-21 -13 -13 -16 -12 -22 4 -5 12 -8 1 -8 -32 l-1 -51 48 -13 c26 -7 54 -19 63
-26 8 -8 29 -17 47 -20 26 -5 50 -29 39 -40 -2 -2 -44 -5 -93 -6 -82 -3 -95
-1 -147 26 -31 15 -57 32 -57 36 0 4 -11 11 -24 14 -39 10 -75 103 -46 121 5
3 33 8 62 11 29 3 55 8 58 11 3 3 21 2 40 -1 19 -3 46 -6 60 -7z m55 -11 c6
-4 2 -8 -7 -8 -10 0 -18 7 -18 17 0 9 3 12 8 7 4 -5 12 -12 17 -16z m-5789
-121 c-3 -18 -5 -39 -6 -47 0 -12 -4 -11 -15 4 -19 25 -6 94 16 81 5 -3 7 -20
5 -38z m5405 -164 c9 6 24 7 33 4 15 -6 16 -23 14 -139 -3 -125 -4 -133 -23
-133 -11 0 -24 10 -30 23 -10 23 -49 31 -61 11 -3 -6 -18 -9 -33 -6 -21 4 -33
-3 -66 -39 -36 -39 -43 -43 -59 -31 -13 10 -16 20 -11 36 6 18 13 22 35 19 24
-4 27 -2 20 13 -14 25 23 57 45 39 14 -11 17 -10 22 9 4 17 8 20 15 9 6 -8 8
5 7 37 -2 104 1 134 17 150 14 14 19 14 38 2 15 -10 26 -11 37 -4z m-366 1
c23 -9 45 -57 38 -83 -3 -12 0 -48 6 -80 14 -72 8 -91 -30 -91 -16 0 -29 -4
-29 -10 0 -23 -30 -8 -36 18 -3 15 -10 45 -16 67 -9 35 -3 159 9 178 5 9 35 9
58 1z m525 -128 c5 -140 0 -176 -25 -156 -12 10 -15 40 -15 145 0 72 3 135 7
139 21 20 28 -10 33 -128z m-420 101 c0 -7 9 -18 20 -25 11 -7 20 -17 20 -22
0 -6 -9 -10 -20 -10 -13 0 -20 7 -20 19 0 10 -7 22 -16 25 -8 3 -12 10 -9 16
9 14 25 12 25 -3z m704 3 c22 -5 43 -16 48 -24 5 -9 18 -16 28 -16 12 0 20 -7
20 -16 0 -14 -14 -16 -107 -12 -130 4 -141 9 -111 49 24 32 51 36 122 19z
m-649 -80 c-3 -5 -11 -10 -16 -10 -6 0 -7 5 -4 10 3 6 11 10 16 10 6 0 7 -4 4
-10z m3585 -16 l41 -17 -28 -29 c-15 -16 -40 -36 -54 -43 -29 -16 -87 -10
-108 10 -11 11 -8 20 19 54 38 47 64 51 130 25z m-3483 -26 c-3 -7 -5 -2 -5
12 0 14 2 19 5 13 2 -7 2 -19 0 -25z m1701 -39 c-18 -12 -95 -12 -82 0 12 12
44 18 72 13 18 -4 20 -7 10 -13z m-8613 -12 c12 -44 1 -119 -18 -131 -27 -17
-38 9 -30 74 8 76 36 108 48 57z m8709 -52 c4 -10 -1 -15 -14 -15 -20 0 -26
11 -13 23 10 11 20 8 27 -8z m-6206 -7 c7 -7 12 -20 12 -30 0 -10 6 -18 14
-18 24 0 38 -27 31 -63 -7 -38 -31 -48 -90 -37 -28 5 -30 9 -39 67 -6 47 -6
67 4 78 15 18 51 20 68 3z m-778 -47 c0 -21 -6 -30 -22 -35 -43 -11 -88 -7
-95 10 -8 20 8 34 49 44 61 14 68 12 68 -19z m-2146 3 c34 -13 14 -24 -43 -24
-76 0 -111 12 -61 21 49 9 86 10 104 3z m7636 -112 c0 -20 -28 -45 -45 -38
-20 7 -19 45 2 68 16 18 18 18 30 2 7 -10 13 -24 13 -32z m2865 -42 c-3 -5
-10 -10 -16 -10 -5 0 -9 5 -9 10 0 6 7 10 16 10 8 0 12 -4 9 -10z m-2918 -46
c-3 -3 -12 -4 -19 -1 -8 3 -5 6 6 6 11 1 17 -2 13 -5z m3588 -44 c13 -6 15 -9
5 -9 -8 0 -22 4 -30 9 -18 12 -2 12 25 0z m-1181 -40 c19 0 56 -35 56 -53 0
-8 -8 -24 -17 -36 l-18 -20 -39 27 c-55 38 -66 59 -41 78 11 8 26 12 33 9 8
-3 19 -5 26 -5z m-1744 -15 c10 -13 9 -15 -11 -15 -13 0 -37 -7 -53 -15 -34
-18 -36 -18 -36 -3 0 39 74 64 100 33z m3075 5 c13 -6 15 -9 5 -9 -8 0 -22 4
-30 9 -18 12 -2 12 25 0z m185 -60 c18 -12 2 -12 -25 0 -13 6 -15 9 -5 9 8 0
22 -4 30 -9z m170 -57 c30 -11 31 -12 6 -8 -16 4 -43 13 -60 20 -23 11 -25 13
-6 8 14 -3 41 -12 60 -20z m-11490 -25 c118 -6 199 -17 355 -47 35 -7 32 -8
-30 -9 -38 0 -322 8 -630 19 -308 10 -587 19 -619 19 -77 0 -69 6 17 13 38 3
71 8 74 10 8 8 685 4 833 -5z m9727 -69 c-12 -30 -12 -38 1 -66 11 -22 13 -39
6 -53 -9 -20 -9 -20 -32 2 -34 34 -72 82 -72 91 0 4 13 10 30 13 20 5 37 18
52 43 27 43 37 23 15 -30z m-2557 -15 c69 -5 115 -10 102 -12 -27 -4 -41 -30
-22 -42 10 -6 8 -17 -8 -51 -12 -24 -23 -55 -25 -68 -2 -14 -12 -28 -23 -31
-18 -7 -18 -7 1 -13 11 -3 33 -8 48 -11 22 -5 26 -10 18 -20 -6 -7 -8 -15 -5
-18 10 -10 -41 -14 -188 -13 -126 0 -145 -2 -135 -14 10 -12 9 -13 -7 -8 -17
7 -18 6 -3 -16 14 -21 13 -24 -1 -35 -15 -9 -13 -11 11 -11 16 -1 30 5 33 14
4 8 15 15 26 15 15 0 19 5 15 20 -4 15 0 20 14 20 10 0 19 -5 19 -11 0 -5 4
-7 10 -4 7 4 6 -3 0 -21 -10 -25 -9 -26 14 -20 13 3 49 1 80 -5 40 -7 61 -7
77 1 12 7 25 8 30 3 4 -4 31 -6 58 -5 38 3 51 8 51 20 0 13 2 14 18 0 21 -18
109 -32 117 -18 11 18 25 11 25 -12 0 -19 2 -20 10 -8 7 10 10 11 10 2 0 -9
26 -11 115 -7 100 5 115 4 115 -9 0 -9 8 -16 18 -17 10 0 12 -3 4 -6 -6 -2
-10 -9 -6 -14 3 -5 -41 -9 -105 -9 -103 0 -161 -10 -161 -27 0 -5 69 -8 154
-8 85 0 158 -3 162 -7 16 -16 -10 -22 -102 -24 -52 -1 -98 -5 -102 -9 -4 -4 3
-5 16 -2 12 3 20 2 17 -3 -2 -4 -71 -6 -152 -4 -82 1 -157 0 -168 -3 l-20 -6
20 -7 c18 -7 18 -8 -7 -15 -16 -4 -28 -10 -28 -14 0 -3 -19 -5 -42 -3 -50 4
-102 -13 -95 -31 2 -6 12 -11 21 -11 9 1 16 -2 16 -7 0 -5 -8 -9 -17 -9 -10 0
-28 -3 -40 -6 -21 -6 -23 -3 -25 32 l-1 39 -4 -38 -4 -38 -47 1 c-26 0 -114
-4 -196 -10 -82 -6 -150 -9 -151 -8 -1 2 26 68 61 148 34 80 63 151 63 159 1
8 7 22 14 30 7 9 28 54 47 101 71 179 99 232 118 226 9 -2 73 -8 142 -12z
m-4001 -49 c2 -3 -63 -4 -145 -3 -89 1 -129 4 -99 7 54 6 236 3 244 -4z m2811
-25 c0 -6 63 -8 175 -4 151 5 177 3 191 -10 13 -13 32 -15 114 -10 98 7 304
-10 345 -28 11 -5 -194 -6 -484 -4 -277 3 -505 7 -508 10 -11 11 19 45 44 49
56 8 123 7 123 -3z m5060 -213 c394 -170 664 -294 653 -300 -5 -3 -21 0 -35 7
-43 23 -487 221 -623 279 -71 30 -196 83 -277 117 -82 34 -148 66 -148 70 0 7
174 -63 430 -173z m-1490 123 c0 -5 -4 -10 -9 -10 -6 0 -13 5 -16 10 -3 6 1
10 9 10 9 0 16 -4 16 -10z m-1215 -83 c-4 -23 -10 -58 -15 -77 -6 -28 -8 -30
-9 -10 -2 47 12 130 21 130 5 0 6 -19 3 -43z m-890 2 c39 -6 95 -13 125 -15
72 -6 91 -9 113 -18 29 -14 19 -22 -23 -18 -22 2 -40 9 -40 16 0 6 -4 5 -10
-4 -7 -12 -19 -13 -80 -2 -39 7 -100 12 -135 12 -48 0 -65 4 -65 13 0 30 11
32 115 16z m-230 -79 c3 -5 1 -10 -4 -10 -6 0 -11 5 -11 10 0 6 2 10 4 10 3 0
8 -4 11 -10z m1985 -61 c27 -14 30 -18 14 -19 -21 0 -108 52 -121 73 -4 6 11
1 33 -13 21 -13 55 -31 74 -41z m-1606 26 c-4 -8 -10 -15 -15 -15 -5 0 -9 7
-9 15 0 8 7 15 15 15 9 0 12 -6 9 -15z m66 5 c-19 -13 -30 -13 -30 0 0 6 10
10 23 10 18 0 19 -2 7 -10z m67 4 c-3 -3 -12 -4 -19 -1 -8 3 -5 6 6 6 11 1 17
-2 13 -5z m1596 -150 c4 -8 13 -14 20 -14 7 0 6 4 -3 10 -20 13 -7 13 23 -1
13 -6 32 -24 41 -41 l18 -29 -50 25 c-28 14 -63 38 -79 52 l-28 27 25 -8 c14
-4 29 -14 33 -21z m750 -152 c144 -98 275 -186 291 -197 16 -11 61 -41 100
-67 39 -26 67 -48 63 -48 -10 0 -135 75 -163 98 -11 9 -26 18 -32 19 -6 2 -63
34 -127 73 -64 38 -123 70 -130 70 -7 0 -35 18 -61 40 -27 22 -54 40 -60 40
-6 0 -19 9 -29 20 -10 12 -44 35 -75 52 -48 26 -56 34 -52 54 2 13 6 24 8 24
2 0 122 -80 267 -178z m-2718 59 c-14 -12 -82 -24 -70 -12 10 9 38 18 65 20 8
1 10 -2 5 -8z m4415 -25 c0 -2 -16 1 -35 6 -19 6 -32 15 -29 20 5 7 64 -17 64
-26z m-2115 -56 c3 -5 1 -10 -4 -10 -6 0 -11 5 -11 10 0 6 2 10 4 10 3 0 8 -4
11 -10z m-394 -67 c13 -16 12 -17 -3 -4 -17 13 -22 21 -14 21 2 0 10 -8 17
-17z m-2304 -430 c-2 -5 -7 -17 -11 -28 -5 -15 -9 -16 -15 -6 -7 10 -13 10
-29 2 -25 -13 -99 -15 -107 -2 -3 5 21 15 52 21 32 6 63 13 68 15 19 7 46 5
42 -2z m-645 -572 c7 10 8 8 5 -8 -3 -13 0 -26 5 -30 7 -3 8 -1 4 5 -4 7 -1
12 8 12 18 0 21 -16 6 -25 -18 -11 -10 -26 13 -23 14 2 22 -2 22 -12 0 -10 -8
-14 -22 -12 -25 4 -27 -1 -14 -26 4 -9 11 -30 15 -46 5 -22 4 -27 -7 -23 -7 3
-19 -4 -27 -16 -9 -15 -10 -22 -1 -25 6 -2 11 -13 11 -24 0 -17 4 -19 26 -14
20 5 27 3 31 -14 3 -11 10 -20 16 -20 6 0 8 -3 5 -6 -3 -3 -15 0 -27 8 -16 10
-23 10 -33 0 -15 -15 -6 -24 24 -26 16 -1 24 -8 26 -23 2 -14 8 -20 18 -16 8
3 14 0 14 -6 0 -6 -4 -11 -10 -11 -21 0 -9 -18 19 -28 35 -12 40 -57 6 -57
-15 0 -19 -6 -17 -25 1 -14 -3 -29 -11 -35 -20 -15 -29 -47 -16 -56 18 -11 1
-29 -27 -29 -17 0 -27 -8 -34 -25 -17 -45 -81 -63 -147 -40 -14 4 -23 16 -23
29 0 14 -3 17 -8 9 -15 -24 -102 -21 -102 3 0 10 -6 14 -14 11 -8 -3 -16 2
-19 13 -6 23 11 99 27 120 19 26 136 287 136 304 0 5 6 17 14 25 7 9 18 31 25
50 17 52 64 128 69 112 4 -11 6 -11 14 0z m78 -157 c0 -8 -4 -12 -10 -9 -5 3
-10 10 -10 16 0 5 5 9 10 9 6 0 10 -7 10 -16z m-393 -526 c-3 -8 -6 -5 -6 6
-1 11 2 17 5 13 3 -3 4 -12 1 -19z m333 -47 c0 -28 -1 -28 -47 -26 -34 1 -48
6 -48 16 0 8 8 13 18 11 9 -2 27 4 39 13 31 21 38 19 38 -14z m-110 -5 c0 -17
-24 -38 -33 -29 -15 15 -6 43 13 43 11 0 20 -6 20 -14z m-50 -6 c0 -5 -5 -10
-11 -10 -5 0 -7 5 -4 10 3 6 8 10 11 10 2 0 4 -4 4 -10z"/>
<path d="M10840 9744 c0 -14 4 -23 10 -19 6 3 10 15 10 26 0 10 -4 19 -10 19
-5 0 -10 -12 -10 -26z"/>
<path d="M9999 9724 c2 -29 -1 -44 -9 -44 -6 0 -10 8 -9 18 2 27 0 42 -8 42
-11 0 -10 -296 0 -306 4 -5 12 -2 17 6 9 13 10 13 10 0 0 -11 3 -10 11 4 12
19 3 313 -10 320 -3 2 -4 -16 -2 -40z m1 -89 c0 -8 -4 -15 -10 -15 -5 0 -10 7
-10 15 0 8 5 15 10 15 6 0 10 -7 10 -15z m-13 -62 c-3 -10 -5 -4 -5 12 0 17 2
24 5 18 2 -7 2 -21 0 -30z"/>
<path d="M9931 9734 c0 -11 3 -14 6 -6 3 7 2 16 -1 19 -3 4 -6 -2 -5 -13z"/>
<path d="M10033 9710 c0 -25 2 -35 4 -22 2 12 2 32 0 45 -2 12 -4 2 -4 -23z"/>
<path d="M10131 9734 c0 -11 3 -14 6 -6 3 7 2 16 -1 19 -3 4 -6 -2 -5 -13z"/>
<path d="M9620 8925 c0 -8 5 -15 10 -15 6 0 10 7 10 15 0 8 -4 15 -10 15 -5 0
-10 -7 -10 -15z"/>
<path d="M2594 7730 c-10 -11 -27 -28 -36 -37 -16 -16 -16 -18 4 -35 26 -22
34 -23 57 0 20 18 24 83 5 89 -5 2 -19 -6 -30 -17z"/>
<path d="M2720 7640 c0 -5 7 -7 15 -4 8 4 15 8 15 10 0 2 -7 4 -15 4 -8 0 -15
-4 -15 -10z"/>
<path d="M2833 7643 c9 -2 23 -2 30 0 6 3 -1 5 -18 5 -16 0 -22 -2 -12 -5z"/>
<path d="M9560 7658 c0 -25 3 -29 10 -18 13 20 13 50 0 50 -5 0 -10 -15 -10
-32z"/>
<path d="M3440 5915 c-14 -36 1 -55 25 -31 15 14 15 18 1 38 l-15 21 -11 -28z"/>
<path d="M3520 5889 c0 -5 5 -7 10 -4 6 3 10 8 10 11 0 2 -4 4 -10 4 -5 0 -10
-5 -10 -11z"/>
<path d="M2432 5480 c0 -14 2 -19 5 -12 2 6 2 18 0 25 -3 6 -5 1 -5 -13z"/>
<path d="M3350 5454 c0 -8 5 -12 10 -9 6 3 10 10 10 16 0 5 -4 9 -10 9 -5 0
-10 -7 -10 -16z"/>
<path d="M8378 2873 c7 -3 16 -2 19 1 4 3 -2 6 -13 5 -11 0 -14 -3 -6 -6z"/>
<path d="M8218 2813 c12 -2 32 -2 45 0 12 2 2 4 -23 4 -25 0 -35 -2 -22 -4z"/>
<path d="M8290 2812 c0 -5 14 -7 30 -4 17 2 30 6 30 8 0 2 -13 4 -30 4 -16 0
-30 -4 -30 -8z"/>
<path d="M8535 2690 c-26 -7 -24 -8 20 -9 36 0 46 2 35 9 -8 5 -17 9 -20 9 -3
-1 -18 -5 -35 -9z"/>
<path d="M8180 2649 l0 -31 53 6 c63 7 97 16 97 26 0 11 -51 19 -81 13 -15 -3
-36 0 -48 6 -19 11 -21 9 -21 -20z"/>
<path d="M8175 2600 c3 -5 8 -10 11 -10 2 0 4 5 4 10 0 6 -5 10 -11 10 -5 0
-7 -4 -4 -10z"/>
<path d="M8300 2541 c0 -6 5 -13 10 -16 6 -3 10 -2 10 4 0 5 28 12 63 14 l62
3 -72 2 c-41 1 -73 -2 -73 -7z"/>
<path d="M8470 2540 c20 -13 40 -13 40 0 0 6 -12 10 -27 10 -22 0 -25 -2 -13
-10z"/>
<path d="M8164 2507 c-3 -10 -3 -29 1 -45 l8 -27 8 35 c8 37 -5 66 -17 37z"/>
<path d="M7453 893 c-7 -2 -13 -12 -13 -21 0 -12 9 -17 29 -17 39 0 50 13 27
31 -21 15 -24 15 -43 7z"/>
<path d="M7600 880 c0 -5 4 -10 9 -10 6 0 13 5 16 10 3 6 -1 10 -9 10 -9 0
-16 -4 -16 -10z"/>
<path d="M7521 854 c0 -11 3 -14 6 -6 3 7 2 16 -1 19 -3 4 -6 -2 -5 -13z"/>
<path d="M7535 750 c3 -5 14 -10 23 -10 15 0 15 2 2 10 -20 13 -33 13 -25 0z"/>
<path d="M3427 9623 c-2 -5 -3 -33 -3 -63 1 -40 5 -55 16 -58 12 -2 15 11 16
63 1 48 -2 65 -12 65 -7 0 -15 -3 -17 -7z"/>
<path d="M3440 9393 c0 -37 12 -54 29 -44 10 7 11 16 4 37 -13 38 -33 43 -33
7z"/>
<path d="M3670 8810 c0 -5 7 -10 16 -10 8 0 12 5 9 10 -3 6 -10 10 -16 10 -5
0 -9 -4 -9 -10z"/>
<path d="M3622 8798 c3 -7 13 -15 22 -16 12 -3 17 1 14 10 -3 7 -13 15 -22 16
-12 3 -17 -1 -14 -10z"/>
<path d="M8592 8419 c2 -7 10 -15 17 -17 8 -3 12 1 9 9 -2 7 -10 15 -17 17 -8
3 -12 -1 -9 -9z"/>
<path d="M3830 8406 c0 -2 7 -9 15 -16 9 -7 15 -8 15 -2 0 5 -7 12 -15 16 -8
3 -15 4 -15 2z"/>
<path d="M8634 8323 c-5 -18 -2 -30 10 -38 18 -13 22 -35 6 -35 -17 0 -11 -46
8 -63 22 -20 36 -21 51 -4 8 10 8 16 -1 25 -6 6 -12 27 -15 46 -3 28 0 36 13
36 12 0 8 6 -12 22 -16 13 -30 26 -32 30 -7 17 -22 7 -28 -19z"/>
<path d="M8980 8239 c0 -6 -8 -8 -18 -5 -12 4 -27 -3 -42 -19 -38 -40 -19 -59
64 -63 67 -3 79 4 51 32 -17 17 -20 46 -5 46 6 0 10 5 10 10 0 6 -13 10 -30
10 -16 0 -30 -5 -30 -11z"/>
<path d="M4045 8139 c-4 -6 -5 -12 -2 -15 2 -3 7 2 10 11 7 17 1 20 -8 4z"/>
<path d="M2840 8039 c0 -5 5 -7 10 -4 6 3 10 8 10 11 0 2 -4 4 -10 4 -5 0 -10
-5 -10 -11z"/>
<path d="M8571 7904 c0 -11 3 -14 6 -6 3 7 2 16 -1 19 -3 4 -6 -2 -5 -13z"/>
<path d="M4020 7388 c0 -57 9 -88 24 -82 7 3 21 -11 31 -31 14 -25 24 -33 36
-30 12 4 23 -4 35 -25 10 -17 24 -28 30 -26 7 3 22 -6 34 -19 12 -13 28 -21
34 -19 7 3 19 -2 26 -11 10 -12 16 -13 26 -4 8 6 14 18 14 26 0 17 -40 73 -53
73 -4 0 -20 14 -34 30 -13 17 -28 30 -32 30 -5 0 -38 29 -76 65 -37 36 -73 65
-81 65 -10 0 -14 -13 -14 -42z"/>
<path d="M3785 7099 c-4 -6 2 -20 13 -32 16 -17 19 -33 17 -74 -4 -69 -13 -93
-38 -103 -18 -7 -14 -9 20 -9 23 -1 44 2 46 7 3 4 8 50 12 102 l7 96 -26 12
c-33 15 -43 15 -51 1z"/>
<path d="M8236 6941 c-7 -11 3 -41 13 -41 4 0 7 -9 8 -21 3 -30 24 -52 37 -39
13 13 29 13 21 0 -3 -5 0 -10 8 -10 9 0 15 10 15 25 0 36 9 41 29 16 15 -17
23 -20 48 -13 35 10 43 33 20 59 -12 14 -29 18 -70 18 -30 -1 -55 2 -55 7 0
11 -67 10 -74 -1z"/>
<path d="M1636 6868 c-3 -13 -6 -35 -6 -50 0 -20 4 -25 18 -22 14 4 16 14 14
50 -4 48 -16 58 -26 22z"/>
<path d="M1670 6860 c0 -18 4 -29 10 -25 6 3 10 15 10 25 0 10 -4 22 -10 25
-6 4 -10 -7 -10 -25z"/>
<path d="M5215 6851 c-3 -5 -1 -12 5 -16 5 -3 10 1 10 9 0 18 -6 21 -15 7z"/>
<path d="M3556 6702 c-3 -6 -1 -14 5 -17 15 -10 25 3 12 16 -7 7 -13 7 -17 1z"/>
<path d="M8560 6418 c-3 -26 -1 -43 3 -39 5 5 7 26 5 47 l-3 39 -5 -47z"/>
<path d="M4057 6203 c6 -74 10 -86 25 -76 20 13 58 10 58 -4 0 -7 6 -13 14
-13 8 0 21 -3 30 -6 11 -4 16 0 16 14 0 16 -8 23 -35 28 -19 3 -35 10 -35 15
0 5 -6 9 -14 9 -13 0 -26 20 -26 42 0 6 9 8 20 5 11 -3 20 -1 20 4 0 5 -5 9
-11 9 -6 0 -17 7 -25 15 -31 30 -41 18 -37 -42z"/>
<path d="M4150 6200 c0 -5 5 -10 11 -10 5 0 7 5 4 10 -3 6 -8 10 -11 10 -2 0
-4 -4 -4 -10z"/>
<path d="M4210 6100 c0 -5 5 -10 10 -10 6 0 10 5 10 10 0 6 -4 10 -10 10 -5 0
-10 -4 -10 -10z"/>
<path d="M3780 6000 c-12 -8 -10 -10 8 -10 13 0 20 4 17 10 -7 12 -6 12 -25 0z"/>
<path d="M3943 5853 c-18 -37 -17 -83 1 -83 8 0 16 -8 18 -17 2 -10 5 15 6 55
2 76 -5 89 -25 45z"/>
<path d="M3710 5068 c0 -23 16 -39 33 -32 22 8 21 21 -2 34 -25 13 -31 13 -31
-2z"/>
<path d="M7993 5000 c0 -30 2 -43 4 -27 2 15 2 39 0 55 -2 15 -4 2 -4 -28z"/>
</g>
</svg>
